<?xml version="1.0" encoding="UTF-8" standalone="no"?>
<!-- Created with Inkscape (http://www.inkscape.org/) -->

<svg
   xmlns:dc="http://purl.org/dc/elements/1.1/"
   xmlns:cc="http://creativecommons.org/ns#"
   xmlns:rdf="http://www.w3.org/1999/02/22-rdf-syntax-ns#"
   xmlns:svg="http://www.w3.org/2000/svg"
   xmlns="http://www.w3.org/2000/svg"
   xmlns:sodipodi="http://sodipodi.sourceforge.net/DTD/sodipodi-0.dtd"
   xmlns:inkscape="http://www.inkscape.org/namespaces/inkscape"
   width="1024"
   height="1024"
   viewBox="0 0 1024 1024"
   id="svg2"
   version="1.1"
   inkscape:version="0.91 r13725"
   sodipodi:docname="notification.svg"
   inkscape:export-filename=".\design\notification.png"
   inkscape:export-xdpi="45"
   inkscape:export-ydpi="45">
  <defs
     id="defs4">
    <filter
       style="color-interpolation-filters:sRGB;"
       inkscape:label="Drop Shadow"
       id="filter4150">
      <feFlood
         flood-opacity="0.498039"
         flood-color="rgb(0,0,0)"
         result="flood"
         id="feFlood4152" />
      <feComposite
         in="flood"
         in2="SourceGraphic"
         operator="in"
         result="composite1"
         id="feComposite4154" />
      <feGaussianBlur
         in="composite1"
         stdDeviation="8"
         result="blur"
         id="feGaussianBlur4156" />
      <feOffset
         dx="0"
         dy="12"
         result="offset"
         id="feOffset4158" />
      <feComposite
         in="SourceGraphic"
         in2="offset"
         operator="over"
         result="composite2"
         id="feComposite4160" />
    </filter>
  </defs>
  <sodipodi:namedview
     id="base"
     pagecolor="#ffffff"
     bordercolor="#666666"
     borderopacity="1.0"
     inkscape:pageopacity="0.0"
     inkscape:pageshadow="2"
     inkscape:zoom="0.49497475"
     inkscape:cx="139.92391"
     inkscape:cy="418.42486"
     inkscape:document-units="px"
     inkscape:current-layer="layer1"
     showgrid="false"
     units="px"
     inkscape:window-width="1858"
     inkscape:window-height="1057"
     inkscape:window-x="54"
     inkscape:window-y="-8"
     inkscape:window-maximized="1" />
  <metadata
     id="metadata7">
    <rdf:RDF>
      <cc:Work
         rdf:about="">
        <dc:format>image/svg+xml</dc:format>
        <dc:type
           rdf:resource="http://purl.org/dc/dcmitype/StillImage" />
        <dc:title />
      </cc:Work>
    </rdf:RDF>
  </metadata>
  <g
     inkscape:label="Layer 1"
     inkscape:groupmode="layer"
     id="layer1"
     transform="translate(0,-28.36209)">
    <path
       style="color:#000000;clip-rule:nonzero;display:inline;overflow:visible;visibility:visible;opacity:1;isolation:auto;mix-blend-mode:normal;color-interpolation:sRGB;color-interpolation-filters:linearRGB;solid-color:#000000;solid-opacity:1;fill:#f2f2f2;fill-opacity:1;fill-rule:evenodd;stroke:#000000;stroke-width:1.97381485;stroke-linecap:butt;stroke-linejoin:miter;stroke-miterlimit:4;stroke-dasharray:1.9738148, 1.97381480000000000;stroke-dashoffset:0;stroke-opacity:0.23529412;color-rendering:auto;image-rendering:auto;shape-rendering:auto;text-rendering:auto;enable-background:accumulate"
       d="M 83.628906 103.7207 C 52.700242 103.7207 27.800781 128.62016 27.800781 159.54883 L 27.800781 864.45117 C 27.800781 895.37984 52.700242 920.2793 83.628906 920.2793 L 940.37109 920.2793 C 971.29976 920.2793 996.19922 895.37984 996.19922 864.45117 L 996.19922 159.54883 C 996.19922 128.62016 971.29976 103.7207 940.37109 103.7207 L 83.628906 103.7207 z M 233.85938 221.16016 C 256.79216 221.16016 277.09789 225.35968 294.58203 233.89844 A 5.0005 5.0005 0 0 1 296.87305 240.60156 L 286.39062 261.85742 A 5.0005 5.0005 0 0 1 279.7793 264.17188 C 264.248 256.87405 248.89746 253.29102 233.56836 253.29102 C 211.29108 253.29102 194.53119 260.45632 181.875 275.00977 L 181.87305 275.01172 C 169.32628 289.45522 162.86133 309.39627 162.86133 335.64453 C 162.86133 362.71333 169.14078 382.93174 181.16211 397.02539 C 193.26942 411.00974 210.15928 418 233.27734 418 C 247.52847 418 264.04021 415.42464 282.73828 410.17773 A 5.0005 5.0005 0 0 1 289.08984 414.99219 L 289.08984 436.68555 A 5.0005 5.0005 0 0 1 285.8457 441.36719 C 270.33972 447.18193 251.56279 449.98437 229.49219 449.98438 C 197.13024 449.98437 171.21979 439.94442 153.12109 419.78906 A 5.0005 5.0005 0 0 1 153.11133 419.7793 C 135.1099 399.61768 126.36328 371.20043 126.36328 335.35352 C 126.36328 312.79816 130.56846 292.77352 139.11133 275.48438 A 5.0005 5.0005 0 0 1 139.12109 275.46289 C 147.76757 258.16993 160.35935 244.63132 176.61328 235.22656 A 5.0005 5.0005 0 0 1 176.625 235.2207 C 192.99758 225.80646 212.18431 221.16016 233.85938 221.16016 z M 437.01953 224.21875 L 495.40234 224.21875 C 522.14855 224.21875 542.57927 229.24971 556.33594 240.31836 L 556.33789 240.32031 C 570.12401 251.33689 576.98437 268.22578 576.98438 289.34766 C 576.98436 317.19696 562.67152 337.72304 536.45508 348.79297 L 591.25977 439.48633 A 5.0005 5.0005 0 0 1 586.98047 447.07227 L 557.71484 447.07227 A 5.0005 5.0005 0 0 1 553.39453 444.58789 L 503.30078 358.55273 L 466.77148 358.55273 L 466.77148 442.07227 A 5.0005 5.0005 0 0 1 461.77148 447.07227 L 437.01953 447.07227 A 5.0005 5.0005 0 0 1 432.01953 442.07227 L 432.01953 229.21875 A 5.0005 5.0005 0 0 1 437.01953 224.21875 z M 466.77148 255.91211 L 466.77148 327.29688 L 495.69336 327.29688 C 512.49685 327.29687 524.07649 323.89914 530.88672 318.15039 C 537.79001 312.2264 541.35936 303.55079 541.35938 290.6582 C 541.35936 277.57304 537.74978 269.37233 530.85352 264.24023 A 5.0005 5.0005 0 0 1 530.83008 264.22266 C 524.00259 259.08195 511.72765 255.91211 493.94727 255.91211 L 466.77148 255.91211 z M 77.828125 481.92969 L 345.92383 481.92969 C 353.57072 481.92969 359.85352 488.20958 359.85352 495.85742 C 359.85352 503.50527 353.57167 509.78711 345.92383 509.78711 L 77.828125 509.78711 C 70.180285 509.78711 63.898437 503.50527 63.898438 495.85742 C 63.898438 488.20958 70.18123 481.92969 77.828125 481.92969 z M 377.95312 481.92969 L 646.04688 481.92969 C 653.69374 481.92969 659.97656 488.20958 659.97656 495.85742 C 659.97656 503.50527 653.6947 509.78711 646.04688 509.78711 L 377.95312 509.78711 C 370.3053 509.78711 364.02344 503.50526 364.02344 495.85742 C 364.02344 488.20958 370.30624 481.92969 377.95312 481.92969 z M 678.07617 481.92969 L 946.17188 481.92969 C 953.81875 481.92969 960.10156 488.20958 960.10156 495.85742 C 960.10156 503.50527 953.8197 509.78711 946.17188 509.78711 L 678.07617 509.78711 C 670.42833 509.78711 664.14648 503.50527 664.14648 495.85742 C 664.14648 488.20958 670.42928 481.92969 678.07617 481.92969 z M 812.54102 613.44141 C 838.63158 613.44141 859.89029 621.97334 874.93164 638.96875 C 889.96205 655.95227 897.28711 679.27139 897.28711 708.08203 C 897.28711 736.81506 889.9175 760.13212 874.82031 777.18555 L 874.8125 777.19531 C 859.77194 794.26952 838.46961 802.83984 812.30273 802.83984 C 785.61834 802.83984 764.09239 794.47773 749.09375 777.68945 A 5.0005 5.0005 0 0 1 749.07617 777.66797 C 734.17359 760.80678 726.96094 737.26029 726.96094 707.8418 C 726.96094 678.65498 734.22345 655.28956 749.21289 638.5918 C 764.21468 621.80002 785.78029 613.44141 812.54102 613.44141 z M 156.62695 616.18359 L 201.80273 616.18359 C 224.22454 616.18359 241.70102 620.47715 253.86328 629.93164 C 266.02554 639.38613 272.125 653.96439 272.125 671.96289 C 272.125 690.74549 265.36173 706.18884 252.10547 716.6543 A 5.0005 5.0005 0 0 1 252.10352 716.6582 C 238.91519 727.05165 220.50544 731.91406 197.39258 731.91406 L 181.89062 731.91406 L 181.89062 795.45508 A 5.0005 5.0005 0 0 1 176.89062 800.45508 L 156.62695 800.45508 A 5.0005 5.0005 0 0 1 151.62695 795.45508 L 151.62695 621.18359 A 5.0005 5.0005 0 0 1 156.62695 616.18359 z M 446.67773 616.18359 L 577.32227 616.18359 A 5.0005 5.0005 0 0 1 582.32227 621.18359 L 582.32227 639.18359 A 5.0005 5.0005 0 0 1 577.32227 644.18359 L 527.13281 644.18359 L 527.13281 795.45508 A 5.0005 5.0005 0 0 1 522.13281 800.45508 L 501.86719 800.45508 A 5.0005 5.0005 0 0 1 496.86719 795.45508 L 496.86719 644.18359 L 446.67773 644.18359 A 5.0005 5.0005 0 0 1 441.67773 639.18359 L 441.67773 621.18359 A 5.0005 5.0005 0 0 1 446.67773 616.18359 z M 812.54102 641.56055 C 794.28863 641.56055 781.39326 647.06744 772.29688 658.0957 L 772.29492 658.09961 C 763.27947 669.04904 758.41797 685.51717 758.41797 708.08203 C 758.41797 730.95837 763.2835 747.62733 772.28516 758.64648 C 772.28816 758.64948 772.29097 758.6513 772.29297 758.6543 C 781.39223 769.61118 794.21409 775.07812 812.30273 775.07812 C 830.56377 775.07814 843.31595 769.60882 852.16406 758.69141 C 861.01837 747.76632 865.83008 731.06968 865.83008 708.08203 C 865.83008 685.33984 861.02622 668.81032 852.17383 657.95898 A 5.0005 5.0005 0 0 1 852.15234 657.93164 C 843.38107 647.02105 830.71824 641.56055 812.54102 641.56055 z M 181.89062 643.70703 L 181.89062 704.51172 L 195.12891 704.51172 C 212.55023 704.51172 224.58662 701.52169 231.17773 696.75781 C 237.78918 691.97924 241.14648 684.66473 241.14648 672.91602 C 241.14648 662.48527 238.07043 655.84109 231.82812 651.17578 C 225.63327 646.54594 214.92331 643.70703 199.53906 643.70703 L 181.89062 643.70703 z "
       id="path4194"
       transform="translate(0,28.36209)" />
    <path
       style="color:#000000;clip-rule:nonzero;display:inline;overflow:visible;visibility:visible;opacity:0.5;isolation:auto;mix-blend-mode:normal;color-interpolation:sRGB;color-interpolation-filters:linearRGB;solid-color:#000000;solid-opacity:1;fill:#f2f2f2;fill-opacity:1;fill-rule:evenodd;stroke:#000000;stroke-width:1.97381485;stroke-linecap:butt;stroke-linejoin:miter;stroke-miterlimit:4;stroke-dasharray:1.9738148, 1.97381480000000000;stroke-dashoffset:0;stroke-opacity:0.23529412;color-rendering:auto;image-rendering:auto;shape-rendering:auto;text-rendering:auto;enable-background:accumulate"
       d="M 83.628906 103.7207 C 52.700242 103.7207 27.800781 128.62016 27.800781 159.54883 L 27.800781 864.45117 C 27.800781 895.37984 52.700242 920.2793 83.628906 920.2793 L 940.37109 920.2793 C 971.29976 920.2793 996.19922 895.37984 996.19922 864.45117 L 996.19922 159.54883 C 996.19922 128.62016 971.29976 103.7207 940.37109 103.7207 L 83.628906 103.7207 z M 233.85938 221.16016 C 256.79216 221.16016 277.09789 225.35968 294.58203 233.89844 A 5.0005 5.0005 0 0 1 296.87305 240.60156 L 286.39062 261.85742 A 5.0005 5.0005 0 0 1 279.7793 264.17188 C 264.248 256.87405 248.89746 253.29102 233.56836 253.29102 C 211.29108 253.29102 194.53119 260.45632 181.875 275.00977 L 181.87305 275.01172 C 169.32628 289.45522 162.86133 309.39627 162.86133 335.64453 C 162.86133 362.71333 169.14078 382.93174 181.16211 397.02539 C 193.26942 411.00974 210.15928 418 233.27734 418 C 247.52847 418 264.04021 415.42464 282.73828 410.17773 A 5.0005 5.0005 0 0 1 289.08984 414.99219 L 289.08984 436.68555 A 5.0005 5.0005 0 0 1 285.8457 441.36719 C 270.33972 447.18193 251.56279 449.98438 229.49219 449.98438 C 197.13024 449.98437 171.21979 439.94442 153.12109 419.78906 A 5.0005 5.0005 0 0 1 153.11133 419.7793 C 135.1099 399.61768 126.36328 371.20043 126.36328 335.35352 C 126.36328 312.79816 130.56846 292.77353 139.11133 275.48438 A 5.0005 5.0005 0 0 1 139.12109 275.46289 C 147.76757 258.16993 160.35935 244.63132 176.61328 235.22656 A 5.0005 5.0005 0 0 1 176.625 235.2207 C 192.99758 225.80646 212.18431 221.16016 233.85938 221.16016 z M 437.01953 224.21875 L 495.40234 224.21875 C 522.14855 224.21875 542.57927 229.24971 556.33594 240.31836 L 556.33789 240.32031 C 570.12401 251.33689 576.98438 268.22578 576.98438 289.34766 C 576.98436 317.19696 562.67152 337.72304 536.45508 348.79297 L 591.25977 439.48633 A 5.0005 5.0005 0 0 1 586.98047 447.07227 L 557.71484 447.07227 A 5.0005 5.0005 0 0 1 553.39453 444.58789 L 503.30078 358.55273 L 466.77148 358.55273 L 466.77148 442.07227 A 5.0005 5.0005 0 0 1 461.77148 447.07227 L 437.01953 447.07227 A 5.0005 5.0005 0 0 1 432.01953 442.07227 L 432.01953 229.21875 A 5.0005 5.0005 0 0 1 437.01953 224.21875 z M 466.77148 255.91211 L 466.77148 327.29688 L 495.69336 327.29688 C 512.49685 327.29687 524.07649 323.89914 530.88672 318.15039 C 537.79001 312.2264 541.35937 303.55079 541.35938 290.6582 C 541.35936 277.57304 537.74978 269.37233 530.85352 264.24023 A 5.0005 5.0005 0 0 1 530.83008 264.22266 C 524.00259 259.08195 511.72765 255.91211 493.94727 255.91211 L 466.77148 255.91211 z M 812.54102 613.44141 C 838.63158 613.44141 859.89029 621.97334 874.93164 638.96875 C 889.96205 655.95227 897.28711 679.27139 897.28711 708.08203 C 897.28711 736.81506 889.9175 760.13212 874.82031 777.18555 L 874.8125 777.19531 C 859.77194 794.26952 838.46961 802.83984 812.30273 802.83984 C 785.61834 802.83984 764.09239 794.47773 749.09375 777.68945 A 5.0005 5.0005 0 0 1 749.07617 777.66797 C 734.17359 760.80678 726.96094 737.26029 726.96094 707.8418 C 726.96094 678.65498 734.22345 655.28956 749.21289 638.5918 C 764.21468 621.80002 785.78029 613.44141 812.54102 613.44141 z M 156.62695 616.18359 L 201.80273 616.18359 C 224.22454 616.18359 241.70102 620.47715 253.86328 629.93164 C 266.02554 639.38613 272.125 653.96439 272.125 671.96289 C 272.125 690.74549 265.36173 706.18884 252.10547 716.6543 A 5.0005 5.0005 0 0 1 252.10352 716.6582 C 238.91519 727.05165 220.50544 731.91406 197.39258 731.91406 L 181.89062 731.91406 L 181.89062 795.45508 A 5.0005 5.0005 0 0 1 176.89062 800.45508 L 156.62695 800.45508 A 5.0005 5.0005 0 0 1 151.62695 795.45508 L 151.62695 621.18359 A 5.0005 5.0005 0 0 1 156.62695 616.18359 z M 446.67773 616.18359 L 577.32227 616.18359 A 5.0005 5.0005 0 0 1 582.32227 621.18359 L 582.32227 639.18359 A 5.0005 5.0005 0 0 1 577.32227 644.18359 L 527.13281 644.18359 L 527.13281 795.45508 A 5.0005 5.0005 0 0 1 522.13281 800.45508 L 501.86719 800.45508 A 5.0005 5.0005 0 0 1 496.86719 795.45508 L 496.86719 644.18359 L 446.67773 644.18359 A 5.0005 5.0005 0 0 1 441.67773 639.18359 L 441.67773 621.18359 A 5.0005 5.0005 0 0 1 446.67773 616.18359 z M 812.54102 641.56055 C 794.28863 641.56055 781.39327 647.06744 772.29688 658.0957 L 772.29492 658.09961 C 763.27947 669.04904 758.41797 685.51717 758.41797 708.08203 C 758.41797 730.95837 763.2835 747.62733 772.28516 758.64648 C 772.28816 758.64948 772.29097 758.6513 772.29297 758.6543 C 781.39223 769.61118 794.21409 775.07812 812.30273 775.07812 C 830.56377 775.07814 843.31595 769.60882 852.16406 758.69141 C 861.01837 747.76632 865.83008 731.06968 865.83008 708.08203 C 865.83008 685.33984 861.02622 668.81032 852.17383 657.95898 A 5.0005 5.0005 0 0 1 852.15234 657.93164 C 843.38107 647.02105 830.71824 641.56055 812.54102 641.56055 z M 181.89062 643.70703 L 181.89062 704.51172 L 195.12891 704.51172 C 212.55023 704.51172 224.58662 701.52169 231.17773 696.75781 C 237.78918 691.97924 241.14648 684.66473 241.14648 672.91602 C 241.14648 662.48527 238.07043 655.84109 231.82812 651.17578 C 225.63327 646.54594 214.92331 643.70703 199.53906 643.70703 L 181.89062 643.70703 z "
       transform="translate(0,28.36209)"
       id="rect4136" />
  </g>
</svg>
